
<svg width="34" height="38" viewBox="0 0 34 38" fill="none" xmlns="http://www.w3.org/2000/svg">
<path d="M34 24.5419C34 25.9234 33.6423 27.2814 32.9616 28.4835C32.281 29.6857 31.3006 30.6912 30.116 31.4019L21.449 36.6019C20.2057 37.3479 18.783 37.742 17.333 37.742C15.883 37.742 14.4603 37.3479 13.217 36.6019L4.55 31.4019C3.36539 30.6912 2.38502 29.6857 1.70437 28.4835C1.02372 27.2814 0.665989 25.9234 0.666 24.5419V13.6019C0.665989 12.2204 1.02372 10.8625 1.70437 9.66032C2.38502 8.45814 3.36539 7.45271 4.55 6.74193L13.217 1.54193C14.4603 0.795925 15.883 0.401855 17.333 0.401855C18.783 0.401855 20.2057 0.795925 21.449 1.54193L30.116 6.74193C31.3006 7.45271 32.281 8.45814 32.9616 9.66032C33.6423 10.8625 34 12.2204 34 13.6019V24.5419Z" fill="#333B41"/>
<path opacity="0.24" d="M21.4199 20.6172H14.3193L12.708 25H11.3223L17.2412 9.35938H18.498L24.417 25H23.042L21.4199 20.6172ZM14.7275 19.4893H21.001L17.8643 10.9707L14.7275 19.4893Z" fill="white"/>
</svg>
