
<svg width="9" height="13" viewBox="0 0 9 13" fill="none" xmlns="http://www.w3.org/2000/svg">
<g opacity="0.51">
<g opacity="0.51">
<path opacity="0.51" d="M5.97929 10.5867L3.13517 11.0882C3.02756 11.1072 2.91682 11.0826 2.82731 11.0199C2.7378 10.9573 2.67686 10.8616 2.65788 10.754L1.22633 2.63523C1.20735 2.52762 1.2319 2.41688 1.29458 2.32738C1.35725 2.23787 1.45292 2.17692 1.56053 2.15795L4.40465 1.65645C4.92769 1.56504 5.46625 1.6444 5.94069 1.88279C6.41513 2.12117 6.80025 2.50593 7.03908 2.98014C7.27792 3.45436 7.35779 3.99285 7.26687 4.51597C7.17596 5.03909 6.91909 5.51906 6.53426 5.88489C7.021 6.09704 7.42654 6.46021 7.69089 6.92069C7.95524 7.38117 8.06436 7.9145 8.00212 8.4418C7.93988 8.9691 7.70958 9.46237 7.34529 9.84865C6.98099 10.2349 6.50205 10.4937 5.97929 10.5867ZM3.39782 10.2052L5.83621 9.77521C6.0496 9.73758 6.25348 9.65829 6.43623 9.54187C6.61898 9.42545 6.777 9.27417 6.90129 9.09668C7.02557 8.91918 7.11368 8.71895 7.16058 8.5074C7.20747 8.29586 7.21225 8.07714 7.17462 7.86376C7.13699 7.65037 7.05771 7.44648 6.94128 7.26373C6.82486 7.08098 6.67358 6.92296 6.49609 6.79867C6.31859 6.67439 6.11836 6.58629 5.90681 6.53939C5.69527 6.49249 5.47656 6.48772 5.26317 6.52534L2.82478 6.9553L3.39782 10.2052ZM2.68204 6.14578L5.12043 5.71583C5.55139 5.63984 5.93451 5.39577 6.18551 5.0373C6.43651 4.67883 6.53483 4.23534 6.45884 3.80438C6.38285 3.37342 6.13878 2.9903 5.78031 2.7393C5.42184 2.4883 4.97835 2.38998 4.54739 2.46597L2.10901 2.89592L2.68204 6.14578Z" fill="white"/>
<path opacity="0.51" d="M2.51533 2.82731C2.40772 2.84628 2.29698 2.82173 2.20747 2.75906C2.11796 2.69638 2.05702 2.60072 2.03804 2.49311L1.89479 1.68064C1.87581 1.57303 1.90036 1.46229 1.96304 1.37279C2.02571 1.28328 2.12137 1.22233 2.22898 1.20336C2.33659 1.18438 2.44733 1.20894 2.53684 1.27161C2.62635 1.33428 2.68729 1.42995 2.70627 1.53756L2.84935 2.34904C2.85889 2.40238 2.85781 2.45708 2.84618 2.51001C2.83455 2.56293 2.81259 2.61304 2.78156 2.65747C2.75054 2.7019 2.71105 2.73977 2.66536 2.76891C2.61968 2.79805 2.56869 2.8179 2.51533 2.82731Z" fill="white"/>
<path opacity="0.51" d="M4.13935 2.54093C4.03174 2.5599 3.921 2.53535 3.8315 2.47268C3.74199 2.41001 3.68104 2.31434 3.66207 2.20673L3.51881 1.39427C3.49983 1.28666 3.52438 1.17592 3.58706 1.08641C3.64973 0.996902 3.7454 0.935957 3.85301 0.916982C3.96062 0.898008 4.07135 0.922558 4.16086 0.985232C4.25037 1.04791 4.31132 1.14357 4.33029 1.25118L4.47338 2.06266C4.48292 2.116 4.48184 2.1707 4.47021 2.22363C4.45857 2.27656 4.43661 2.32667 4.40559 2.37109C4.37456 2.41552 4.33507 2.45339 4.28939 2.48253C4.2437 2.51168 4.19272 2.53152 4.13935 2.54093Z" fill="white"/>
<path opacity="0.51" d="M4.09004 11.7575C3.98243 11.7765 3.87169 11.7519 3.78218 11.6892C3.69267 11.6266 3.63173 11.5309 3.61275 11.4233L3.46949 10.6108C3.45052 10.5032 3.47507 10.3925 3.53774 10.303C3.60042 10.2135 3.69608 10.1525 3.80369 10.1335C3.9113 10.1146 4.02204 10.1391 4.11155 10.2018C4.20105 10.2645 4.262 10.3601 4.28097 10.4677L4.42406 11.2792C4.4336 11.3326 4.43252 11.3873 4.42089 11.4402C4.40926 11.4931 4.3873 11.5432 4.35627 11.5876C4.32524 11.6321 4.28576 11.6699 4.24007 11.6991C4.19439 11.7282 4.1434 11.7481 4.09004 11.7575Z" fill="white"/>
<path opacity="0.51" d="M5.71406 11.4711C5.60645 11.4901 5.49571 11.4655 5.4062 11.4029C5.31669 11.3402 5.25575 11.2445 5.23678 11.1369L5.09352 10.3244C5.07454 10.2168 5.09909 10.1061 5.16177 10.0166C5.22444 9.92708 5.3201 9.86613 5.42771 9.84716C5.53532 9.82818 5.64606 9.85273 5.73557 9.91541C5.82508 9.97808 5.88602 10.0737 5.905 10.1814L6.04808 10.9928C6.05762 11.0462 6.05655 11.1009 6.04491 11.1538C6.03328 11.2067 6.01132 11.2568 5.98029 11.3013C5.94927 11.3457 5.90978 11.3836 5.86409 11.4127C5.81841 11.4419 5.76742 11.4617 5.71406 11.4711Z" fill="white"/>
</g>
</g>
</svg>
