
<svg width="150" height="150" viewBox="0 0 150 150" fill="none" xmlns="http://www.w3.org/2000/svg">
<path d="M70.703 88.9879C70.6636 88.9354 70.598 88.8567 70.598 88.7517H70.5061C70.5324 88.8173 70.5717 88.8698 70.6242 88.9223C70.6636 88.9617 70.703 89.0011 70.7423 89.0535C70.7423 89.0273 70.7292 89.0142 70.703 88.9879" fill="#A27D22"/>
<path d="M81.0841 81.3139C81.1235 81.3139 81.1497 81.327 81.176 81.3532C81.176 81.2876 81.2153 81.2482 81.2416 81.222L81.2547 81.2089V81.1957C81.2547 81.1957 81.2547 81.1957 81.2547 81.1826C81.2285 81.1957 81.2022 81.1957 81.176 81.1957H81.1497C81.1366 81.1957 81.1235 81.1957 81.1104 81.1957C81.0841 81.1957 81.0579 81.1957 81.0579 81.1957C81.0579 81.222 81.0579 81.2482 81.0579 81.2745C81.071 81.2745 81.071 81.2876 81.0841 81.2876C81.071 81.3007 81.071 81.3139 81.0841 81.3139" fill="#A27D22"/>
<path d="M57.326 81.3139C57.3654 81.3139 57.3916 81.327 57.4179 81.3532C57.4179 81.2876 57.4572 81.2482 57.4835 81.222L57.4966 81.2089V81.1957C57.4966 81.1957 57.4966 81.1957 57.4966 81.1826C57.4703 81.1957 57.4441 81.1957 57.4179 81.1957H57.3916C57.3785 81.1957 57.3654 81.1957 57.3522 81.1957C57.326 81.1957 57.2997 81.1957 57.2866 81.1957C57.2866 81.222 57.2866 81.2482 57.2866 81.2745C57.2997 81.2745 57.2997 81.2876 57.3129 81.2876C57.3129 81.3007 57.3129 81.3139 57.326 81.3139" fill="#A27D22"/>
<path d="M55.0263 81.6029V81.5766C54.9869 81.5766 54.9475 81.5503 54.9343 81.524C54.9212 81.4977 54.9081 81.4715 54.9212 81.432C54.9081 81.432 54.9081 81.432 54.8949 81.432C54.8818 81.432 54.8686 81.4189 54.8555 81.4058C54.8423 81.4058 54.8423 81.4058 54.8292 81.4058L54.8161 81.4452C54.8029 81.4977 54.7766 81.5766 54.619 81.5766C54.5927 81.5766 54.5664 81.5766 54.5533 81.5766H54.5401L54.5007 81.6554C54.5007 81.6817 54.4876 81.6949 54.4744 81.708C54.4481 81.7474 54.3824 81.7737 54.3167 81.7606H54.3036C54.2379 81.8263 54.1459 81.8525 54.0802 81.8394H54.0671C54.0671 81.8657 54.0539 81.892 54.0408 81.9182C54.0671 81.9445 54.1196 81.9708 54.159 81.9839H54.1853C54.1853 81.9445 54.1853 81.9182 54.2116 81.892C54.251 81.8394 54.3167 81.8263 54.4087 81.8657C54.4218 81.8657 54.4613 81.892 54.4876 81.9182L54.5138 81.8788C54.5401 81.8394 54.5795 81.8131 54.6321 81.8131H54.6978C54.7109 81.8131 54.7109 81.8131 54.7241 81.8131H54.7635L54.7898 81.8525C54.7898 81.8525 54.7898 81.8657 54.8029 81.8657C54.8161 81.8525 54.8423 81.8525 54.8555 81.8525C54.8423 81.8131 54.8555 81.7737 54.8686 81.7606C54.8818 81.7474 54.9081 81.7211 54.9606 81.7211C55 81.7211 55.0395 81.7343 55.0657 81.7606L55.0789 81.7868C55.0789 81.7737 55.092 81.7737 55.092 81.7606C55.092 81.7606 55.0789 81.7474 55.0789 81.7343C55.0526 81.6817 55.0263 81.6554 55.0263 81.6029" fill="#A27D22"/>
<path d="M55.6435 81.0641L55.6566 81.0378V81.0378H55.6435V81.0378C55.6303 81.0641 55.6172 81.0772 55.6172 81.1166V81.1428L55.591 81.1691C55.4991 81.2478 55.4204 81.3134 55.3547 81.379C55.3679 81.379 55.381 81.379 55.3941 81.379C55.4072 81.379 55.4072 81.379 55.4204 81.3659C55.4204 81.3528 55.4335 81.2741 55.5253 81.2741H55.5516C55.5516 81.2741 55.5516 81.2741 55.5647 81.2741C55.5647 81.2478 55.5778 81.2216 55.6041 81.1953C55.6303 81.1691 55.6697 81.1428 55.7091 81.1428L55.7616 81.156L55.8009 81.1953L55.8141 81.1822C55.7747 81.1691 55.7484 81.1428 55.7353 81.1166L55.6435 81.0641Z" fill="#A27D22"/>
<path fill-rule="evenodd" clip-rule="evenodd" d="M50.5192 58.8129L50.4929 58.7851L50.5192 58.7434C50.4929 58.7295 50.4535 58.6738 50.4272 58.6182C50.5061 58.646 50.5981 58.646 50.6506 58.5904C50.6769 58.5626 50.6901 58.5209 50.6901 58.4652C50.6901 58.4265 50.6709 58.4012 50.6548 58.38C50.6479 58.3708 50.6415 58.3624 50.6375 58.354C50.6375 58.3401 50.6506 58.3262 50.6638 58.3123L50.6638 58.3123C50.6769 58.3123 50.6769 58.2984 50.6769 58.2984C50.7032 58.3123 50.7032 58.3123 50.7163 58.3262L50.7163 58.3262C50.7163 58.3331 50.7196 58.3366 50.7229 58.3401C50.7262 58.3436 50.7295 58.347 50.7295 58.354C50.7426 58.3818 50.7558 58.4096 50.782 58.4235C50.8477 58.4791 50.9529 58.4513 51.0317 58.4096C51.1368 58.4374 51.3077 58.3957 51.3602 58.2705L51.3997 58.1871L51.3208 58.1454C51.3077 58.1384 51.2945 58.1349 51.2814 58.1315C51.2682 58.128 51.2551 58.1245 51.242 58.1176C51.2389 58.1161 51.2359 58.1147 51.2329 58.1133C51.119 58.0598 51.031 58.0184 51.0054 57.9507C51.0317 57.9507 51.058 57.9507 51.0974 57.9646L51.242 58.0063V57.9368C51.242 57.9428 51.242 57.9462 51.243 57.9492C51.2444 57.9532 51.2476 57.9567 51.2551 57.9646C51.2551 57.9715 51.2584 57.975 51.2617 57.9785C51.265 57.982 51.2682 57.9854 51.2682 57.9924C51.2692 57.9944 51.2702 57.9965 51.2712 57.9989C51.2854 58.0298 51.3132 58.0907 51.3865 58.1037C51.4654 58.1176 51.5179 58.0758 51.5311 58.048L51.5442 58.0341L51.5705 58.048L51.6099 58.0758C51.6099 58.0897 51.6099 58.1037 51.5968 58.1176C51.5959 58.1202 51.595 58.123 51.5941 58.1259C51.5805 58.1682 51.5599 58.2324 51.5968 58.2844C51.6493 58.3401 51.715 58.3401 51.7544 58.3401C51.9253 58.3401 51.9516 58.2149 51.9647 58.1176C51.9713 58.1176 51.9778 58.121 51.9844 58.1245C51.991 58.128 51.9975 58.1315 52.0041 58.1315L52.1355 58.2149L52.1618 58.1037C52.1618 58.0874 52.1663 58.0711 52.1701 58.0576C52.1727 58.048 52.1749 58.0399 52.1749 58.0341C52.1881 58.0341 52.2012 58.0341 52.2144 58.048C52.2303 58.048 52.2414 58.0582 52.2535 58.0694C52.2614 58.0766 52.2697 58.0843 52.2801 58.0897C52.3326 58.1315 52.3852 58.1732 52.4246 58.1871C52.4246 58.194 52.4213 58.1975 52.418 58.201C52.4148 58.2045 52.4115 58.208 52.4115 58.2149L52.3983 58.2288C52.3589 58.2566 52.3326 58.3123 52.3589 58.4096C52.3721 58.4652 52.4509 58.5626 52.5166 58.5904C52.5954 58.6182 52.6349 58.5904 52.6611 58.5487C52.6743 58.5765 52.7006 58.6043 52.7269 58.6182C52.8188 58.6738 52.9108 58.6599 52.9502 58.5904C52.9634 58.5904 52.9765 58.5626 52.9765 58.5487H52.9897C53.0685 58.5626 53.1605 58.5765 53.2393 58.5487C53.2533 58.5398 53.2697 58.5309 53.287 58.5215C53.3512 58.4867 53.4289 58.4445 53.4496 58.3679C53.4589 58.3777 53.4666 58.3876 53.4737 58.3968C53.4868 58.4137 53.4983 58.4284 53.5153 58.4374C53.5021 58.4652 53.489 58.507 53.5021 58.5626C53.5153 58.6321 53.5679 58.6599 53.6073 58.6738L53.6204 58.6878C53.627 58.6947 53.6368 58.6982 53.6467 58.7017C53.6565 58.7051 53.6664 58.7086 53.673 58.7156C53.6835 58.7267 53.7024 58.7378 53.7213 58.7489C53.7497 58.7656 53.7781 58.7823 53.7781 58.799L53.8307 58.9103V58.9242H52.9371C52.9371 58.8685 52.924 58.8268 52.8845 58.7851C52.832 58.7156 52.7531 58.7017 52.6874 58.7156L52.648 58.7295L52.6349 58.7573C52.5692 58.7017 52.464 58.646 52.3852 58.6878L52.3458 58.7156V58.7573C52.3458 58.8129 52.3721 58.8825 52.4115 58.9242L52.4246 58.9381H50.8083C50.8083 58.9242 50.8083 58.9242 50.7952 58.9103V58.8825V58.8129C50.7689 58.6738 50.6769 58.6599 50.6638 58.6599C50.5981 58.6599 50.5455 58.7295 50.5192 58.8129ZM51.1622 58.4229C51.0572 58.4229 50.9916 58.4507 50.9522 58.5062C50.9259 58.534 50.9128 58.5757 50.9391 58.659L50.9522 58.7145H51.0047H51.1359H51.2934L51.3459 58.7284C51.4771 58.7284 51.5559 58.5062 51.5559 58.409C51.5559 58.3257 51.5034 58.284 51.4509 58.284C51.4115 58.284 51.3721 58.3118 51.3196 58.3673C51.2803 58.4229 51.2671 58.4229 51.254 58.4229H51.2015H51.1622Z" fill="#A27D22"/>
<path d="M47.2863 76.5963L47.2994 76.5306H47.3257C47.3257 76.5175 47.3126 76.5175 47.3126 76.5043V76.4912H47.1943L47.168 76.5569C47.1549 76.57 47.1286 76.6357 47.0892 76.6752L46.9183 76.8723V76.6357C46.9052 76.6357 46.8789 76.6226 46.8789 76.6226C46.8526 76.6095 46.8001 76.57 46.8264 76.4912C46.8395 76.4781 46.8395 76.4649 46.8395 76.4518L46.8264 76.4124C46.8264 76.4255 46.8132 76.4255 46.8132 76.4386L46.8001 76.4912V76.4912L46.7738 76.5043C46.6818 76.57 46.5898 76.5569 46.5241 76.5569H46.4453V76.4912V76.4912C46.4453 76.4781 46.4453 76.4781 46.4453 76.4649L46.3533 76.5043L46.3139 76.5175C46.2876 76.5306 46.2613 76.5306 46.235 76.5306H46.1693L46.1825 76.57C46.1956 76.5832 46.1956 76.5963 46.2087 76.6095C46.2613 76.6489 46.2876 76.7277 46.2876 76.7934L46.2482 76.7803L46.2613 76.8591L46.1299 76.8986L46.0905 76.8723C46.0773 76.8591 46.0773 76.846 46.0642 76.8329C46.0511 76.8197 46.0379 76.8066 46.0248 76.7934C46.0116 76.7934 45.9854 76.7934 45.9722 76.7934C45.9459 76.7934 45.9197 76.7934 45.8934 76.7934C45.8145 76.7803 45.7751 76.7409 45.762 76.6883C45.762 76.6752 45.7488 76.6489 45.7751 76.6095C45.7357 76.5963 45.6963 76.5832 45.6568 76.5438C45.6568 76.57 45.6568 76.5963 45.6568 76.6226L45.5911 76.6752L45.6568 76.6489H45.67C45.6963 76.662 45.7488 76.6752 45.7751 76.7277C45.7882 76.7671 45.7882 76.8066 45.7751 76.8329C45.7225 76.9117 45.5911 76.9117 45.578 76.9117H45.5386L45.5911 76.9643V77.0037C45.5911 77.0168 45.5911 77.03 45.5911 77.03C45.6174 77.0168 45.6437 77.0037 45.67 77.0037H45.6831L45.7488 77.03L45.762 77.0694V77.0825L45.8408 77.1219C45.8539 77.1351 45.8934 77.1219 45.9065 77.1088C45.8934 77.0825 45.8802 77.0431 45.9065 76.9905C45.9328 76.9248 45.9854 76.8854 46.0511 76.8854H46.0905C46.1168 76.8854 46.143 76.8986 46.1562 76.9117L46.1825 76.9248C46.2087 76.9248 46.2482 76.9248 46.2876 76.9643C46.3139 76.9774 46.327 77.0037 46.3402 77.0168C46.3402 77.0037 46.3402 76.9774 46.3402 76.9643C46.3533 76.8854 46.419 76.8591 46.4453 76.8591L46.4716 76.846C46.4716 76.846 46.4716 76.8329 46.4716 76.8197C46.4847 76.7146 46.5504 76.662 46.6292 76.662C46.6555 76.662 46.6818 76.662 46.7081 76.6752C46.8658 76.7014 46.9052 76.8066 46.8789 76.8854C46.8789 76.8986 46.8658 76.9248 46.8658 76.938L46.9052 76.9248C46.9709 76.9248 46.9972 76.9774 47.0103 77.0037L47.0235 76.9905L47.1023 77.0694V77.2008C47.1417 77.1351 47.1943 77.1219 47.2469 77.1351C47.2206 77.03 47.3126 77.0037 47.352 76.9905C47.3388 76.9643 47.3388 76.938 47.3388 76.8986C47.3257 76.8591 47.352 76.8197 47.3651 76.7934C47.3783 76.7803 47.4045 76.7671 47.4177 76.7671L47.3783 76.7409C47.3651 76.7277 47.2863 76.6883 47.2863 76.5963" fill="#A27D22"/>
<path d="M50.2824 58.8829C50.2693 58.8698 50.2299 58.8436 50.2168 58.8436C50.2037 58.8436 50.2037 58.8567 50.2037 58.8567C50.1906 58.8698 50.1906 58.8829 50.1643 58.8961H50.3087C50.3087 58.8961 50.2955 58.8961 50.2824 58.8829" fill="#A27D22"/>
<path d="M50.4926 58.8959V58.8959L50.5058 58.9091C50.5058 58.8959 50.5058 58.8959 50.5058 58.8828L50.4926 58.8959" fill="#A27D22"/>
<path d="M60.0327 58.8304C60.0195 58.8304 60.0195 58.8304 60.0064 58.8304L59.967 58.8173C59.9802 58.8435 59.9802 58.8698 59.9802 58.896H60.0983L60.0327 58.8304Z" fill="#A27D22"/>
<path d="M71.7804 81.051V81.051C71.7673 81.0378 71.7541 81.0378 71.741 81.0378C71.7541 81.0378 71.7673 81.051 71.7804 81.0641C71.7935 81.0641 71.7804 81.0641 71.7804 81.051" fill="#A27D22"/>
<path d="M75.4205 47.2402V47.2402V47.2533C75.4205 47.2664 75.4205 47.2795 75.4336 47.2927C75.4336 47.2533 75.4467 47.2139 75.473 47.1877C75.4467 47.2139 75.4336 47.2271 75.4205 47.2402" fill="#A27D22"/>
<path d="M81.2286 82.2995C81.2155 82.2995 81.2023 82.2995 81.2023 82.2995V82.3651H81.2417V82.4045H81.2548C81.2548 82.3651 81.2679 82.3257 81.2942 82.2995L81.3073 82.2863C81.2811 82.2995 81.2417 82.2995 81.2286 82.2995" fill="#A27D22"/>
<path d="M95.5386 81.051V81.051C95.5255 81.051 95.5124 81.0378 95.4993 81.0378C95.5124 81.0378 95.5255 81.051 95.5386 81.0641C95.5518 81.0641 95.5518 81.0641 95.5386 81.051" fill="#A27D22"/>
<path d="M100.085 56.9513L100.059 56.9644C100.059 56.9775 100.059 57.0038 100.046 57.03C100.059 56.9907 100.072 56.9775 100.085 56.9513V56.9513Z" fill="#A27D22"/>
<path d="M75.4205 47.2402V47.2402V47.2533C75.4205 47.2664 75.4205 47.2795 75.4336 47.2927C75.4336 47.2533 75.4467 47.2139 75.473 47.1877C75.4467 47.2139 75.4336 47.2271 75.4205 47.2402" fill="#A27D22"/>
<path d="M75.8017 46.2151C75.7885 46.2151 75.7492 46.202 75.7229 46.1495C75.7098 46.097 75.736 46.0576 75.736 46.0445L75.7492 46.0051H75.7885C75.8541 45.992 75.9066 46.0051 75.946 46.0314L75.9591 46.0445L76.051 46.1626V46.202C76.0379 46.2939 75.9723 46.3464 75.946 46.3857L75.8804 46.4645L75.8279 46.3857C75.8017 46.3464 75.7885 46.307 75.7885 46.2676C75.8148 46.2414 75.8148 46.2282 75.8017 46.2151" fill="#A27D22"/>
<path d="M91.701 54.0336C91.701 54.0598 91.7141 54.0861 91.6879 54.1255C91.6748 54.1517 91.6485 54.2042 91.596 54.2567C91.5829 54.2698 91.5829 54.2698 91.5829 54.2829C91.5698 54.3223 91.5435 54.3879 91.4385 54.3879H91.3992L91.2942 54.2173L91.3204 54.1779C91.3336 54.1648 91.3336 54.1386 91.3467 54.1255C91.3598 54.0992 91.3992 54.0598 91.3861 54.0336C91.3861 54.0205 91.3861 54.0205 91.3729 54.0073C91.3467 53.9811 91.3073 53.9286 91.3204 53.8367L91.3336 53.7711L91.3992 53.758C91.4123 53.758 91.4254 53.7449 91.4517 53.7318C91.4779 53.7186 91.5173 53.6924 91.5698 53.6924H91.5829C91.6354 53.7055 91.6748 53.7318 91.6879 53.758L91.7404 53.7318L91.7929 53.7711C91.8322 53.8105 91.8585 53.8499 91.8585 53.9024V53.9811L91.7798 53.9942C91.7535 53.9942 91.7141 54.0205 91.701 54.0205C91.6879 54.0205 91.6879 54.0205 91.701 54.0336" fill="#A27D22"/>
<path d="M75.4205 47.2402V47.2533C75.4205 47.2664 75.4205 47.2795 75.4336 47.2927C75.4336 47.2533 75.4467 47.2139 75.473 47.1877C75.4467 47.2139 75.4336 47.2271 75.4205 47.2402V47.2402Z" fill="#A27D22"/>
<path d="M81.2286 82.2995C81.2155 82.2995 81.2023 82.2995 81.2023 82.2995V82.3651H81.2417V82.4045H81.2548C81.2548 82.3651 81.2679 82.3257 81.2942 82.2995L81.3073 82.2863C81.2811 82.2995 81.2417 82.2995 81.2286 82.2995" fill="#A27D22"/>
<path d="M71.7804 81.051V81.051C71.7673 81.0378 71.7541 81.0378 71.741 81.0378C71.7541 81.0378 71.7673 81.051 71.7804 81.0641C71.7935 81.0641 71.7804 81.0641 71.7804 81.051" fill="#A27D22"/>
<path d="M54.8678 78.7903C54.8415 78.8297 54.8022 78.8428 54.7628 78.8428L54.7103 78.8297H54.6972C54.6841 78.8297 54.6841 78.8297 54.6841 78.8297C54.6841 78.8297 54.6841 78.8428 54.6972 78.8428C54.7103 78.8953 54.6972 78.9347 54.6841 78.9478C54.6578 78.9872 54.6053 79.0003 54.5791 79.0003H54.5528C54.5397 79.0003 54.5266 79.0003 54.5135 79.0003C54.5003 79.0265 54.461 79.0659 54.4085 79.0659L54.3691 79.0528C54.3297 79.0397 54.3035 79.0134 54.2904 78.9872C54.2772 78.9478 54.2772 78.8953 54.3035 78.8559C54.3297 78.8166 54.3691 78.7903 54.3953 78.7772C54.4085 78.7772 54.4085 78.7641 54.4085 78.7641C54.3691 78.6853 54.4085 78.646 54.4347 78.6197C54.4478 78.6066 54.461 78.6066 54.4741 78.5935C54.4478 78.5672 54.4216 78.5147 54.4347 78.4622C54.4347 78.4491 54.4478 78.4097 54.5003 78.3835L54.5397 78.3704L54.5791 78.3835C54.5922 78.3835 54.5922 78.3966 54.6053 78.3966C54.6447 78.3572 54.6972 78.3179 54.7759 78.3179L54.8809 78.331V78.4097C54.8809 78.4229 54.8809 78.4229 54.8809 78.4229H54.894L54.9072 78.4885C54.9203 78.5147 54.9203 78.5541 54.894 78.5935C54.9072 78.6066 54.9203 78.6197 54.9334 78.646C54.9072 78.7116 54.894 78.7509 54.8678 78.7903" fill="#A27D22"/>
<path d="M59.3358 80.7486C59.3227 80.7879 59.2833 80.8273 59.2439 80.8273L59.2177 80.8798L59.0733 80.8535L59.0602 80.8142C59.0471 80.8142 59.0339 80.7879 59.0208 80.7617C59.0077 80.7354 59.0077 80.7092 59.0077 80.6829L58.929 80.5386L59.0077 80.5517C58.9946 80.5123 58.9814 80.473 58.9683 80.4205L58.9552 80.3417L59.0602 80.3286C59.1389 80.3286 59.1652 80.368 59.1783 80.4074L59.2045 80.4336C59.2308 80.4598 59.2702 80.4992 59.2702 80.5517V80.578L59.2439 80.6305V80.6305C59.3489 80.6698 59.3358 80.7354 59.3358 80.7486" fill="#A27D22"/>
<path d="M70.9264 79.9736L70.9395 79.908H71.0183C71.0708 79.908 71.1757 79.9211 71.2414 79.9867C71.2545 79.9998 71.2545 80.0129 71.2676 80.0261L71.3201 80.0392L71.3332 80.0654C71.3464 80.0917 71.3464 80.1311 71.3332 80.1573C71.3201 80.1835 71.307 80.2098 71.2676 80.2229L71.2282 80.236C71.202 80.236 71.1757 80.2229 71.1626 80.2098C71.1495 80.2098 71.1495 80.2229 71.1364 80.2229C71.1101 80.236 71.097 80.236 71.0708 80.236H71.0314L70.992 80.1967C70.9658 80.1573 70.9789 80.1048 70.9789 80.0786C70.9658 80.0917 70.9133 80.0523 70.9264 79.9736" fill="#A27D22"/>
<path d="M95.0916 80.1704C95.0785 80.1966 95.0653 80.2229 95.0391 80.236L94.9997 80.2491C94.9735 80.2491 94.9472 80.236 94.9341 80.2229C94.921 80.2229 94.921 80.236 94.9079 80.236C94.8816 80.2491 94.8554 80.2491 94.8422 80.2491H94.8029L94.7635 80.2097C94.7373 80.1704 94.7504 80.1179 94.7504 80.0916C94.7373 80.0785 94.6848 80.0391 94.6979 79.9604L94.711 79.8948H94.7898C94.8422 79.8948 94.9472 79.9079 94.9997 79.9735C95.0128 79.9866 95.0128 79.9998 95.026 80.0129L95.0785 80.026L95.0916 80.0523C95.0916 80.1047 95.0916 80.1441 95.0916 80.1704" fill="#A27D22"/>
<path d="M81.2023 82.2995V82.3651H81.2417V82.4045H81.2548C81.2548 82.3651 81.2679 82.3257 81.2942 82.2995L81.3073 82.2863C81.2811 82.2995 81.2417 82.2995 81.2286 82.2995C81.2155 82.3126 81.2155 82.2995 81.2023 82.2995" fill="#A27D22"/>
<path d="M71.7804 81.051V81.051C71.7673 81.0378 71.7541 81.0378 71.741 81.0378C71.7541 81.0378 71.7673 81.051 71.7804 81.0641C71.7935 81.0641 71.7804 81.0641 71.7804 81.051" fill="#A27D22"/>
<path d="M75.4205 47.2402V47.2402V47.2533C75.4205 47.2664 75.4205 47.2795 75.4336 47.2927C75.4336 47.2533 75.4467 47.2139 75.473 47.1877C75.4467 47.2139 75.4336 47.2271 75.4205 47.2402" fill="#A27D22"/>
<path d="M71.7804 81.051V81.051C71.7673 81.0378 71.7541 81.0378 71.741 81.0378C71.7541 81.0378 71.7673 81.051 71.7804 81.0641C71.7935 81.0641 71.7804 81.0641 71.7804 81.051" fill="#A27D22"/>
<path d="M81.2286 82.2995C81.2155 82.2995 81.2023 82.2995 81.2023 82.2995V82.3651H81.2417V82.4045H81.2548C81.2548 82.3651 81.2679 82.3257 81.2942 82.2995L81.3073 82.2863C81.2811 82.2995 81.2417 82.2995 81.2286 82.2995" fill="#A27D22"/>
<path d="M85.7225 78.8303C85.7094 78.8172 85.7094 78.791 85.7094 78.7778V78.7647C85.6962 78.7516 85.6831 78.7253 85.67 78.686C85.6569 78.686 85.6569 78.6729 85.6437 78.6729V78.686L85.5781 78.6991V78.6991C85.5781 78.7122 85.5781 78.7122 85.5781 78.7253H85.6044L85.5781 78.7516C85.5781 78.7778 85.565 78.8172 85.5256 78.8566V78.8566C85.5781 78.8828 85.5913 78.9222 85.5913 78.9484C85.5913 78.9484 85.5913 78.9484 85.5913 78.9616C85.6044 78.9616 85.6044 78.9616 85.6175 78.9616C85.6306 78.9353 85.6437 78.9222 85.6569 78.9091C85.6962 78.8697 85.7094 78.8566 85.7225 78.8303V78.8303" fill="#A27D22"/>
<path d="M68.1798 79.0406C68.1666 79.0275 68.101 79.0012 68.101 78.9487V78.9356C68.0748 78.9356 68.0223 78.9225 67.996 78.8962L67.9829 78.9225L68.101 79.0275C68.1141 79.0275 68.1141 79.0406 68.1273 79.0406C68.1404 79.0537 68.1666 79.0668 68.1929 79.0931C68.206 79.08 68.2323 79.08 68.2454 79.08L68.1798 79.0406Z" fill="#A27D22"/>
<path d="M84.7896 57.1351L84.8289 57.1745L84.842 57.0563L84.947 57.1351C84.9602 57.1482 84.9733 57.1613 84.9864 57.1745C84.9864 57.1482 84.9995 57.1088 85.0126 57.0826C85.0258 57.0695 85.0258 57.0563 85.0389 57.0432L84.9864 56.9907C84.9602 56.9645 84.947 56.9251 84.9339 56.8989C84.9339 56.8989 84.9339 56.8989 84.9339 56.8857L84.9208 56.8989C84.9077 56.912 84.8945 56.9251 84.8683 56.9382L84.8158 56.9645C84.8158 56.9776 84.8158 56.9776 84.8158 56.9907C84.8158 57.0039 84.8289 57.017 84.8289 57.017C84.842 57.0301 84.8552 57.0695 84.8289 57.1088C84.8158 57.1088 84.8027 57.122 84.7896 57.1351" fill="#A27D22"/>
<path d="M60.059 89.5923C60.0197 89.5398 59.9672 89.4742 59.9147 89.4086C59.9147 89.3954 59.9016 89.3823 59.8884 89.3823C59.8884 89.4217 59.9016 89.4742 59.9147 89.5398C59.9409 89.5529 59.9803 89.5661 60.0197 89.6054H60.059V89.5923Z" fill="#A27D22"/>
<path d="M80.1117 79.7368C80.0855 79.7106 80.0855 79.6712 80.0855 79.6581C80.0855 79.6318 80.0986 79.6187 80.1117 79.6056C80.0592 79.6056 80.0198 79.5793 79.9936 79.5269C79.9936 79.5269 79.9805 79.5269 79.9805 79.54C79.9936 79.5793 80.0067 79.6187 79.9805 79.6712C79.9805 79.6712 79.9805 79.6712 79.9805 79.6843C80.033 79.6843 80.0855 79.7368 80.1248 79.7762V79.7762C80.1248 79.75 80.1117 79.75 80.1117 79.7368" fill="#A27D22"/>
<path d="M102.871 77.1745C102.898 77.2008 102.898 77.2401 102.898 77.2664V77.2795C102.924 77.2795 102.963 77.2926 102.989 77.3057C103.003 77.2926 103.029 77.2795 103.055 77.2795H103.081C103.121 77.2926 103.16 77.332 103.16 77.3714C103.16 77.3845 103.16 77.4107 103.147 77.4239C103.16 77.4239 103.16 77.437 103.173 77.4501C103.173 77.4632 103.186 77.4632 103.186 77.4763L103.199 77.4501C103.186 77.4239 103.173 77.3845 103.173 77.3582C103.173 77.2926 103.213 77.2664 103.239 77.2533L103.252 77.2401C103.252 77.2139 103.252 77.1614 103.291 77.122C103.318 77.1089 103.344 77.0958 103.37 77.0958V77.0958L103.291 77.0302V77.0039C103.278 77.0564 103.226 77.0826 103.199 77.0826C103.186 77.0958 103.16 77.1614 103.094 77.1614C103.055 77.1614 103.029 77.1351 103.016 77.122L102.963 77.0826C102.976 77.1614 102.924 77.1745 102.871 77.1745V77.1745Z" fill="#A27D22"/>
<path d="M84.645 57.2664L84.6581 57.332L84.5794 57.3452C84.5663 57.3452 84.54 57.3714 84.54 57.3714V57.3977C84.5663 57.3714 84.6057 57.3583 84.6319 57.3583C84.6844 57.3583 84.7369 57.3977 84.7631 57.437C84.7894 57.3714 84.8025 57.3058 84.8156 57.2271L84.7238 57.2402C84.7106 57.2533 84.6713 57.2533 84.645 57.2664" fill="#A27D22"/>
<path d="M60.3349 82.2861L60.3218 82.273C60.2299 82.2336 60.243 82.1548 60.243 82.1286C60.243 82.1155 60.2299 82.1155 60.2299 82.1155L60.2561 82.1942C60.2693 82.2336 60.2824 82.273 60.2561 82.3386C60.243 82.3517 60.2299 82.3779 60.2168 82.3911C60.2693 82.4173 60.2824 82.4829 60.2824 82.4961V82.4961C60.2955 82.4961 60.2955 82.4961 60.3086 82.4961C60.2693 82.4304 60.2824 82.3648 60.2955 82.3386C60.2955 82.3255 60.3086 82.2992 60.3349 82.2861" fill="#A27D22"/>
<path d="M56.4453 82.4835H56.4059L56.3928 82.4572C56.3796 82.4835 56.3665 82.5097 56.3271 82.536C56.3403 82.536 56.3403 82.5491 56.3534 82.5491V82.5228H56.4321C56.4584 82.5228 56.4715 82.5228 56.4846 82.5228C56.5109 82.5228 56.5502 82.5228 56.5896 82.5491C56.5896 82.5491 56.6027 82.5491 56.6027 82.5622C56.5896 82.536 56.5765 82.5097 56.5765 82.4835C56.5371 82.4835 56.4978 82.4966 56.4453 82.4835" fill="#A27D22"/>
<path d="M61.9644 78.8303C61.9644 78.8171 61.9513 78.7909 61.9513 78.7647V78.7515C61.9382 78.7384 61.9251 78.7122 61.9119 78.6728C61.8988 78.6728 61.8988 78.6597 61.8857 78.6597V78.6728L61.8201 78.6859V78.6859C61.8201 78.699 61.8201 78.699 61.8201 78.7122H61.8463L61.8201 78.7384C61.8201 78.7647 61.8069 78.804 61.7676 78.8434V78.8434C61.8201 78.8696 61.8332 78.909 61.8332 78.9353V78.9353C61.8463 78.9353 61.8463 78.9353 61.8594 78.9484C61.8726 78.9221 61.8857 78.909 61.8988 78.8959C61.9382 78.8696 61.9513 78.8565 61.9644 78.8303C61.9644 78.8434 61.9644 78.8434 61.9644 78.8303" fill="#A27D22"/>
<path d="M70.4534 79.7108C70.4402 79.8159 70.3745 79.829 70.3482 79.829C70.322 79.829 70.2957 79.8159 70.2694 79.8027V79.8027C70.2562 79.8159 70.2431 79.829 70.23 79.829L70.2168 79.8422C70.23 79.8553 70.2431 79.8816 70.23 79.921C70.23 79.9473 70.2168 79.9604 70.2168 79.9736H70.23V80.0261C70.2431 80.0524 70.23 80.0918 70.2168 80.1313L70.1905 80.1707H70.1511L70.1905 80.2232L70.1643 80.2364C70.1905 80.2758 70.2168 80.3152 70.1905 80.3809C70.1774 80.3941 70.1774 80.4072 70.1643 80.4204C70.1643 80.4204 70.1643 80.4204 70.1643 80.4335L70.1905 80.4072L70.2037 80.4598V80.3941L70.2694 80.3809C70.2825 80.3809 70.2957 80.3678 70.322 80.3809C70.3088 80.3678 70.3088 80.3415 70.3088 80.3152C70.322 80.2758 70.3614 80.2495 70.3745 80.2364V80.2364C70.3745 80.2232 70.3745 80.2232 70.3745 80.2101C70.3745 80.1707 70.4008 80.1444 70.4271 80.1181C70.3614 80.0918 70.2957 80.013 70.322 79.921L70.3351 79.8685H70.3877C70.4008 79.8685 70.4271 79.8685 70.4402 79.8685C70.4402 79.8422 70.4402 79.8159 70.4665 79.7896C70.4796 79.7765 70.5059 79.7502 70.5322 79.7502C70.5191 79.7108 70.5322 79.6845 70.5453 79.6582H70.5322C70.5059 79.6845 70.4665 79.6976 70.4534 79.7108" fill="#A27D22"/>
<path d="M52.2929 56.3333C52.2404 56.3333 52.1485 56.2939 52.1354 56.2152C52.1223 56.1495 52.1747 56.1102 52.1879 56.0971C52.201 56.0708 52.1879 56.0314 52.1747 56.0183V56.0183C52.1747 56.0446 52.1616 56.0708 52.1354 56.1102C52.1223 56.1233 52.1223 56.1364 52.1223 56.1495C52.1091 56.202 52.1091 56.2414 52.1091 56.2677V56.307C52.1223 56.3201 52.1354 56.3201 52.1485 56.3333C52.1879 56.3726 52.201 56.4251 52.2141 56.4776C52.2141 56.5039 52.2272 56.517 52.2272 56.5301C52.2272 56.517 52.2272 56.5039 52.2404 56.4908L52.2535 56.412L52.3191 56.4251C52.3322 56.412 52.3454 56.3726 52.3585 56.3595C52.3585 56.3464 52.3716 56.3333 52.3716 56.3333C52.3585 56.3464 52.3454 56.3464 52.3191 56.3595L52.2929 56.3333Z" fill="#A27D22"/>
<path d="M55.8407 56.0836C55.8407 56.0836 55.8407 56.0705 55.8407 56.0836C55.8276 56.0443 55.8013 55.9918 55.8276 55.9262C55.8407 55.8868 55.8669 55.8737 55.8801 55.8605C55.8669 55.8474 55.8669 55.8343 55.8538 55.8343C55.8538 55.8212 55.8407 55.808 55.8407 55.7949V55.7949C55.8276 55.7949 55.8145 55.808 55.8013 55.808C55.8013 55.808 55.8013 55.808 55.7882 55.808V55.9918C55.7882 56.0443 55.7882 56.0836 55.7751 56.123C55.7882 56.123 55.8013 56.1099 55.8145 56.1099C55.8276 56.0836 55.8407 56.0836 55.8407 56.0836" fill="#A27D22"/>
<path d="M96.3269 80.6436L96.34 80.578H96.3531C96.3531 80.5517 96.34 80.5386 96.3531 80.5123L96.3662 80.473C96.3531 80.4467 96.34 80.4205 96.34 80.3811V80.4598L96.2481 80.4074C96.2481 80.4205 96.235 80.4336 96.2219 80.4467C96.2875 80.473 96.3269 80.5386 96.3269 80.5911V80.6436L96.2875 80.6567C96.2219 80.7092 96.1563 80.6961 96.13 80.6698C96.1169 80.6698 96.1169 80.6829 96.1038 80.6829C96.1169 80.6961 96.13 80.7223 96.13 80.7486C96.1825 80.7354 96.2612 80.7486 96.2875 80.7879L96.3531 80.8404V80.8667C96.3531 80.8929 96.3531 80.9192 96.34 80.9323V80.9323L96.3269 80.9979V81.011C96.34 81.0241 96.3531 81.0504 96.3531 81.0898V81.0898C96.3794 81.0766 96.3925 81.0635 96.4187 81.0766C96.4187 81.0635 96.4187 81.0504 96.4187 81.0241L96.4318 80.9585H96.4975H96.5106V80.9454C96.5106 80.9323 96.5237 80.9192 96.5368 80.906C96.5106 80.8929 96.4975 80.8798 96.4712 80.8667C96.4581 80.8535 96.445 80.8404 96.445 80.8142C96.4056 80.8011 96.3531 80.7879 96.3269 80.7486C96.3137 80.7223 96.3137 80.6829 96.3269 80.6436" fill="#A27D22"/>
<path d="M72.1353 80.9067H72.0828C72.0828 80.9199 72.0828 80.9461 72.0828 80.9724C72.0696 80.9986 72.0565 81.0248 72.0434 81.0248C72.0434 81.0511 72.0434 81.0773 72.0303 81.0905C72.0434 81.0905 72.0565 81.1036 72.0828 81.1036L72.1484 81.1298V81.1823C72.1746 81.1823 72.2009 81.1823 72.2271 81.1955C72.2402 81.1823 72.2534 81.1692 72.2665 81.1561H72.2534L72.2665 81.0642C72.2665 81.0511 72.2665 81.038 72.2665 81.038C72.2665 81.0117 72.2665 80.9855 72.2796 80.9461V80.933H72.2402C72.1878 80.9461 72.1615 80.933 72.1353 80.9067" fill="#A27D22"/>
<path d="M95.8936 80.9067H95.8411C95.8411 80.933 95.8411 80.9461 95.8411 80.9724C95.8279 80.9986 95.8148 81.0248 95.8017 81.038C95.8017 81.0642 95.8017 81.0905 95.7886 81.1036C95.8017 81.1036 95.8148 81.1167 95.8411 81.1167L95.9067 81.143V81.1955C95.9329 81.1955 95.9592 81.1955 95.9723 81.2086C95.9854 81.1955 95.9985 81.1823 96.0117 81.1692H95.9854L95.9985 81.0773C95.9985 81.0642 95.9985 81.0511 95.9985 81.038C95.9985 81.0117 95.9985 80.9855 95.9985 80.9461V80.933H95.9723C95.9461 80.9461 95.9067 80.933 95.8936 80.9067" fill="#A27D22"/>
<path d="M96.1825 81.1956C96.1825 81.1956 96.1956 81.1956 96.1825 81.1956C96.2088 81.235 96.2088 81.2613 96.2088 81.2875V81.3138C96.2219 81.327 96.2351 81.3532 96.2351 81.3795C96.2482 81.4321 96.2219 81.4715 96.2088 81.4978L96.2482 81.6292L96.1693 81.6161V81.6292C96.1693 81.6555 96.1562 81.6818 96.1431 81.6949C96.1562 81.708 96.1693 81.7343 96.1562 81.7869V81.8263C96.1693 81.8526 96.1693 81.8657 96.1693 81.892V81.892H96.2088V81.9183C96.2219 81.9183 96.2351 81.9183 96.2613 81.9314L96.3139 81.9577V81.9577L96.4059 81.9709C96.4584 81.9446 96.4979 81.9183 96.5504 81.9446C96.5504 81.9183 96.5504 81.892 96.5636 81.8789C96.5767 81.8526 96.603 81.8263 96.6424 81.8132L96.6293 81.7606H96.7344C96.8395 81.7475 96.9052 81.7869 96.9315 81.8263C96.9446 81.8394 96.9446 81.8526 96.9446 81.8657L97.0629 81.8394C97.0629 81.8394 97.0629 81.8263 97.076 81.8263C97.0235 81.8132 96.9972 81.7737 96.9841 81.7475C96.9709 81.708 96.9841 81.6686 97.0103 81.6292V81.6029C96.9972 81.6029 96.9972 81.5898 96.9841 81.5766C96.9446 81.5241 96.9315 81.4715 96.9446 81.4321L96.8921 81.4452H96.8789C96.8395 81.4978 96.7607 81.4978 96.695 81.4584C96.6687 81.4452 96.6555 81.4321 96.6555 81.4321C96.6555 81.4321 96.6424 81.4321 96.6161 81.4452C96.5898 81.4452 96.5636 81.4584 96.5373 81.4584C96.4716 81.4584 96.4322 81.4189 96.3927 81.3927C96.3533 81.3532 96.2876 81.2875 96.3008 81.2087C96.2613 81.2087 96.2219 81.2087 96.1825 81.1956" fill="#A27D22"/>
<path d="M52.6478 57.7267C52.6084 57.7267 52.5559 57.7267 52.5034 57.7004C52.5034 57.7267 52.5034 57.7398 52.5034 57.7661C52.5034 57.7923 52.5034 57.8317 52.5165 57.8317C52.5428 57.8317 52.5559 57.8185 52.5559 57.8054C52.5822 57.7792 52.6347 57.7398 52.6871 57.7398C52.7134 57.7398 52.7396 57.7529 52.7659 57.7661C52.7396 57.7267 52.7265 57.7267 52.6609 57.7267H52.6478Z" fill="#A27D22"/>
<path d="M84.0931 82.2861L84.0669 82.273C83.975 82.2336 83.9882 82.1548 83.9882 82.1286C83.9882 82.1155 83.975 82.1155 83.975 82.1155L84.0013 82.1942C84.0144 82.2336 84.0275 82.273 84.0013 82.3386C83.9882 82.3517 83.9882 82.3779 83.9619 82.3911C84.0144 82.4173 84.0275 82.4829 84.0275 82.4961V82.4961C84.0407 82.4961 84.0407 82.4961 84.0538 82.4961C84.0144 82.4304 84.0275 82.3648 84.0407 82.3386C84.0538 82.3255 84.0669 82.2992 84.0931 82.2861" fill="#A27D22"/>
<path d="M92.5033 78.9356C92.5033 78.9356 92.4901 78.9224 92.477 78.9224V79.0276L92.3587 78.9619C92.3587 78.9619 92.3587 78.9619 92.3587 78.975C92.385 79.0407 92.3719 79.1984 92.3719 79.1984L92.3587 79.2641H92.293C92.293 79.2641 92.293 79.2641 92.2799 79.2641V79.2772V79.3824L92.1879 79.3561C92.1879 79.3692 92.1879 79.3692 92.1879 79.3824C92.1879 79.4086 92.1879 79.4086 92.1879 79.4218C92.1879 79.4743 92.1879 79.6057 92.0828 79.6189L92.1222 79.632V79.7109V79.7109C92.1353 79.7109 92.1485 79.724 92.1485 79.724C92.1879 79.7372 92.201 79.7766 92.2142 79.8029C92.2273 79.8423 92.2142 79.8686 92.201 79.8948C92.2273 79.908 92.2667 79.9343 92.293 79.9737L92.3324 80.0394L92.2799 80.0788C92.2667 80.0919 92.2405 80.1051 92.2273 80.1182C92.2273 80.1314 92.2405 80.1314 92.2405 80.1445C92.2536 80.1577 92.2667 80.1708 92.2799 80.1839C92.3062 80.1577 92.3324 80.1577 92.3456 80.1445C92.3587 80.1314 92.385 80.1182 92.4113 80.1182L92.4507 80.1314C92.4901 80.1445 92.5033 80.1839 92.5164 80.2102C92.5295 80.2102 92.5427 80.1839 92.5558 80.1708L92.5952 80.1314C92.5952 80.1182 92.5952 80.0919 92.5952 80.0657C92.6084 80.0394 92.6215 80.0262 92.6478 80.0131V80.0131C92.661 79.9605 92.7004 79.9474 92.7398 79.9343C92.7398 79.9211 92.7267 79.8948 92.7267 79.8817C92.7135 79.8817 92.6872 79.8686 92.6741 79.8423L92.6347 79.7897C92.6215 79.7503 92.6347 79.724 92.6347 79.7109C92.6347 79.7109 92.6215 79.7109 92.6215 79.6977C92.6084 79.6846 92.5952 79.6846 92.5821 79.6714C92.5558 79.6583 92.5295 79.632 92.5164 79.6057C92.5033 79.5663 92.5033 79.54 92.5295 79.5138L92.4638 79.4612L92.5164 79.4086C92.5033 79.3824 92.4901 79.3429 92.5033 79.3035C92.5164 79.251 92.569 79.1852 92.5821 79.159L92.7661 78.9224C92.7267 78.9224 92.6872 78.9224 92.6478 78.8699C92.6215 78.9356 92.569 78.9619 92.5033 78.9356" fill="#A27D22"/>
<path d="M46.8132 77.2142C46.8001 77.2011 46.8001 77.2011 46.8132 77.2142C46.8001 77.2142 46.8001 77.2142 46.8001 77.2273L46.7738 77.2667H46.7344C46.682 77.2667 46.6426 77.2536 46.6163 77.2536C46.6032 77.2536 46.5901 77.2536 46.5901 77.2404C46.5901 77.2929 46.577 77.3192 46.5376 77.3454C46.5638 77.3717 46.6163 77.411 46.5901 77.4898V77.5029C46.6295 77.4898 46.6688 77.4898 46.7213 77.4898H46.8132L46.8263 77.5685C46.8394 77.5685 46.8394 77.5685 46.8394 77.5685C46.8394 77.5423 46.8526 77.516 46.8919 77.4767C46.9051 77.4635 46.9313 77.4504 46.9707 77.4373C46.9838 77.4373 46.9969 77.4242 46.9969 77.4242C46.9838 77.3979 46.9969 77.3585 47.0494 77.3192C47.0757 77.3061 47.1019 77.2929 47.115 77.2929V77.2798H47.0625C46.9444 77.2798 46.8526 77.2536 46.8132 77.2142" fill="#A27D22"/>
<path d="M83.6465 89.3691C83.6465 89.4085 83.6596 89.461 83.6727 89.5266C83.699 89.5397 83.7383 89.5529 83.7646 89.5922H83.804C83.7646 89.5397 83.7121 89.4741 83.6596 89.4085C83.6727 89.3954 83.6596 89.3823 83.6465 89.3691" fill="#A27D22"/>
<path d="M75.3154 46.7936C75.3285 46.7936 75.3285 46.7936 75.3154 46.7936C75.3285 46.7936 75.3154 46.7936 75.3154 46.7936C75.2891 46.8067 75.276 46.8067 75.2629 46.8198L75.2235 46.8723C75.2366 46.8592 75.2498 46.8592 75.2498 46.8461C75.2891 46.833 75.3022 46.8198 75.3154 46.7936" fill="white"/>
<path d="M50.0326 78.344C50.0326 78.3309 50.0195 78.3046 50.0326 78.2784C50.0326 78.2653 50.0326 78.2521 50.0457 78.2521H50.0326C50.0064 78.2521 49.9801 78.239 49.967 78.239C49.967 78.2521 49.967 78.2521 49.967 78.2653C49.9539 78.3046 49.9539 78.3571 49.9014 78.3965C49.9407 78.4096 49.967 78.449 49.967 78.5277C49.9932 78.5146 50.0064 78.4884 50.0326 78.4752C50.0457 78.4621 50.0588 78.4621 50.072 78.4621L49.9801 78.449L50.0326 78.344Z" fill="#A27D22"/>
<path d="M93.9488 79.8292C93.9619 79.8423 93.975 79.8686 93.9619 79.908C93.9619 79.9343 93.9488 79.9475 93.9488 79.9606H93.9619V80.0132C93.975 80.0394 93.9619 80.0789 93.9488 80.1183L93.9225 80.1577H93.8831L93.9225 80.2103L93.8962 80.2234C93.9225 80.2628 93.9488 80.3023 93.9225 80.368C93.9093 80.3811 93.9093 80.3942 93.8962 80.4074C93.8962 80.4074 93.8962 80.4074 93.8962 80.4205L93.9225 80.3942L93.9356 80.4337V80.368L94.0013 80.3548C94.0145 80.3548 94.0276 80.3548 94.0539 80.3548V80.3548C94.0407 80.3417 94.0407 80.3154 94.0407 80.2891C94.0539 80.2497 94.0933 80.2234 94.1064 80.2103C94.1064 80.2103 94.1064 80.2103 94.1196 80.2103C94.1196 80.1971 94.1196 80.1971 94.1196 80.184C94.1196 80.1446 94.1459 80.1183 94.1721 80.092C94.1064 80.0657 94.0407 79.9869 94.067 79.8949L94.0802 79.8423H94.1327C94.1459 79.8423 94.1721 79.8423 94.1853 79.8423C94.1853 79.816 94.1853 79.7898 94.2116 79.7635C94.2247 79.7503 94.251 79.7241 94.2773 79.7241C94.2641 79.6846 94.2773 79.6584 94.2904 79.6321H94.2773C94.2641 79.6846 94.2247 79.7109 94.1984 79.7241C94.1721 79.8292 94.1196 79.8423 94.0933 79.8423C94.067 79.8423 94.0407 79.8292 94.0145 79.816V79.816C94.0013 79.8292 93.9882 79.8423 93.975 79.8423L93.9488 79.8292Z" fill="#A27D22"/>
<path d="M56.3534 79.7368C56.3272 79.7106 56.3272 79.6712 56.3272 79.6581C56.3272 79.6318 56.3403 79.6187 56.3534 79.6056C56.3009 79.6056 56.2615 79.5793 56.2353 79.5269L56.2222 79.54C56.2353 79.5793 56.2484 79.6187 56.2222 79.6712C56.2222 79.6712 56.2222 79.6712 56.2222 79.6843C56.2747 79.6843 56.3272 79.7368 56.3665 79.7762V79.7762C56.3665 79.75 56.3665 79.75 56.3534 79.7368" fill="#A27D22"/>
<path d="M59.8093 58.4755C59.8093 58.4623 59.7962 58.4492 59.7962 58.4361C59.7831 58.423 59.7831 58.4099 59.77 58.3967C59.77 58.4099 59.77 58.4099 59.77 58.423L59.7831 58.4886L59.7175 58.5017H59.7043C59.7568 58.5542 59.77 58.6067 59.77 58.6592L59.7831 58.6461L59.8618 58.5805L59.9143 58.6723C59.9143 58.6854 59.9274 58.6854 59.9274 58.6986L59.9537 58.6854C59.9668 58.6854 59.9668 58.6723 59.9799 58.6723C59.8749 58.6592 59.8356 58.5411 59.8093 58.4755" fill="#A27D22"/>
<path d="M101.439 58.8305C101.399 58.8305 101.36 58.8436 101.334 58.8831C101.321 58.8962 101.321 58.8962 101.321 58.9093C101.308 58.9225 101.308 58.9356 101.308 58.9488C101.242 58.9488 101.202 58.975 101.176 59.0013C101.163 58.975 101.15 58.9488 101.137 58.9093C101.124 58.8831 101.097 58.8699 101.071 58.8568L101.032 58.8436C101.045 58.8042 101.071 58.7517 101.045 58.6991C101.032 58.686 101.032 58.6728 101.005 58.6597C100.966 58.5545 100.808 58.5151 100.742 58.594C100.742 58.5545 100.729 58.5283 100.716 58.502C100.703 58.4494 100.677 58.3969 100.677 58.3443C100.703 58.3706 100.742 58.3837 100.769 58.3969C100.769 58.3969 100.874 58.4363 100.9 58.4363H100.913C100.966 58.4231 101.018 58.3837 101.032 58.318C101.045 58.2917 101.045 58.2655 101.045 58.2392C101.071 58.226 101.084 58.226 101.11 58.2129C101.11 58.226 101.11 58.2392 101.11 58.2523C101.11 58.2655 101.11 58.2786 101.124 58.2917C101.11 58.3049 101.084 58.318 101.071 58.3443L101.045 58.3837L101.071 58.4231C101.084 58.4626 101.124 58.5283 101.189 58.5545C101.176 58.5677 101.176 58.5808 101.176 58.594C101.163 58.6597 101.176 58.6991 101.189 58.7385C101.229 58.8042 101.321 58.8174 101.36 58.8174C101.373 58.8174 101.386 58.8174 101.399 58.8174L101.413 58.8042C101.386 58.7911 101.399 58.7911 101.439 58.8305C101.426 58.8174 101.426 58.8305 101.439 58.8305" fill="#A27D22"/>
<path d="M76.498 89.2113H76.5898L76.5504 89.1719C76.5373 89.1719 76.5111 89.185 76.498 89.1982V89.2113" fill="#A27D22"/>
<path d="M96.682 58.4755H96.7739C96.7608 58.4755 96.7608 58.4624 96.7477 58.4624L96.682 58.4755Z" fill="#A27D22"/>
<path d="M55.5126 96.2943C56.1433 95.335 57.326 95.0722 58.2327 95.6635C58.5612 95.8738 58.7583 96.176 58.8634 96.3994L59.1262 96.2811L59.2708 96.3731L58.6006 97.4112L58.4561 97.3192C58.6137 96.6491 58.5349 96.1234 58.0618 95.8081C57.5099 95.4533 56.6689 95.6504 56.0382 96.6228C55.4337 97.5558 55.7359 98.3968 56.2616 98.7516C56.8003 99.1064 57.3128 98.975 57.7596 98.6859L57.8647 98.8698C57.3785 99.1852 56.6689 99.3823 55.9725 98.9224C55.0921 98.3179 54.8818 97.2667 55.5126 96.2943" fill="white"/>
<path fill-rule="evenodd" clip-rule="evenodd" d="M61.3209 97.4112C60.4273 96.9644 59.3629 97.3192 58.8373 98.3967C58.3117 99.4874 58.6796 100.499 59.5863 100.946C60.4799 101.393 61.5311 101.051 62.0699 99.9604C62.5955 98.8829 62.2407 97.8579 61.3209 97.4112ZM61.2151 97.5817C61.8327 97.8839 62.0561 98.5935 61.5173 99.6973C60.9785 100.801 60.3215 101.077 59.7039 100.775C59.0863 100.473 58.8629 99.763 59.4017 98.6592C59.9404 97.5554 60.5975 97.2794 61.2151 97.5817Z" fill="white"/>
<path fill-rule="evenodd" clip-rule="evenodd" d="M63.7122 102.365C63.2392 102.181 63.1735 102.129 63.2392 101.945L63.6597 100.657L64.0539 100.788C64.6058 100.972 64.7898 101.183 64.6452 101.721L64.5401 102.142C64.4087 102.654 64.4744 102.851 65.2365 103.114C65.2562 103.121 65.2924 103.131 65.3285 103.141C65.3647 103.15 65.4008 103.16 65.4205 103.167L65.4862 102.996C65.1183 102.838 65.0131 102.72 65.0789 102.392L65.1708 101.853C65.2365 101.445 65.2497 101.156 64.6189 100.867V100.854C65.3285 100.933 65.6833 100.71 65.8279 100.276C65.9724 99.8291 65.8016 99.3035 64.7241 98.9356L63.2392 98.4231L63.1866 98.5939C63.6334 98.7648 63.7254 98.8436 63.6728 99.0144L62.7267 101.761C62.661 101.932 62.5427 101.945 62.0828 101.8L62.0171 101.971L63.6465 102.536L63.7122 102.365ZM65.276 100.105C65.1052 100.617 64.8424 100.854 64.1591 100.617L63.7386 100.473L64.2511 98.988L64.6321 99.1194C65.276 99.3428 65.4337 99.6319 65.276 100.105Z" fill="white"/>
<path fill-rule="evenodd" clip-rule="evenodd" d="M66.6294 102.97C66.59 103.154 66.4718 103.18 65.9987 103.088L65.9724 103.272L67.6938 103.653L67.7333 103.469C67.2339 103.338 67.1288 103.272 67.1682 103.088L67.431 101.918L67.7858 101.997C68.929 102.247 69.4284 101.748 69.5335 101.235C69.6518 100.683 69.4021 100.158 68.2852 99.9079L66.774 99.5793L66.7346 99.7633C67.1945 99.8816 67.2996 99.9604 67.2602 100.131L66.6294 102.97ZM68.9554 101.13C68.8372 101.655 68.6006 101.971 67.8647 101.813L67.4705 101.721L67.8385 100.039L68.2458 100.131C68.9554 100.276 69.0474 100.683 68.9554 101.13Z" fill="white"/>
<path fill-rule="evenodd" clip-rule="evenodd" d="M71.8594 100.407C70.8607 100.315 69.9934 101.012 69.8751 102.208C69.7569 103.403 70.4533 104.231 71.4651 104.336C72.4638 104.428 73.3311 103.745 73.4494 102.536C73.5676 101.34 72.8712 100.512 71.8594 100.407ZM71.806 100.604C72.5025 100.67 72.9492 101.261 72.831 102.483C72.7127 103.705 72.2002 104.192 71.5038 104.126C70.8073 104.06 70.3606 103.469 70.4788 102.247C70.6102 101.025 71.1227 100.538 71.806 100.604Z" fill="white"/>
<path fill-rule="evenodd" clip-rule="evenodd" d="M75.8015 104.231C75.289 104.218 75.2102 104.179 75.2102 103.995L75.1839 102.654L75.5912 102.641C76.1826 102.628 76.4191 102.76 76.4717 103.312L76.5111 103.745C76.5636 104.258 76.695 104.415 77.4966 104.402C77.5163 104.402 77.5525 104.399 77.5886 104.396C77.6247 104.392 77.6609 104.389 77.6806 104.389V104.205C77.2864 104.179 77.1418 104.1 77.0893 103.771L76.9973 103.233C76.9316 102.812 76.8396 102.549 76.1431 102.497V102.484C76.8396 102.313 77.0893 101.984 77.0761 101.524C77.063 101.051 76.7213 100.618 75.5781 100.644L74.0012 100.683V100.867C74.4874 100.88 74.6057 100.933 74.6057 101.104L74.6714 104.008C74.6714 104.192 74.5531 104.244 74.0801 104.271V104.455L75.8015 104.415V104.231ZM76.498 101.564C76.5111 102.102 76.3403 102.418 75.6175 102.431H75.197L75.1576 100.867L75.5518 100.854C76.2351 100.841 76.4848 101.064 76.498 101.564Z" fill="white"/>
<path fill-rule="evenodd" clip-rule="evenodd" d="M78.8631 102.786L80.1246 102.615L80.532 103.377C80.6765 103.666 80.5977 103.784 80.1115 103.876L80.1378 104.034L81.8066 103.798L81.7803 103.64C81.3598 103.64 81.2284 103.522 81.0839 103.259L79.507 100.263L79.2573 100.302L78.5083 103.285C78.3769 103.798 78.2849 104.034 77.917 104.165L77.9433 104.323L79.1653 104.152L79.1391 103.995C78.6397 103.995 78.6003 103.929 78.7317 103.364L78.8631 102.786ZM79.2967 100.985L80.0195 102.418L78.9025 102.562L79.2705 100.985H79.2967Z" fill="white"/>
<path d="M82.6349 103.403C83.1211 103.259 83.2394 103.18 83.1868 103.009L82.4247 99.9736L82.1487 100.039C81.6231 100.171 81.5837 100.486 81.5311 101.196L81.3603 101.222L81.1106 100.079L84.1724 99.3035L84.5009 100.434L84.33 100.486C83.9884 99.9079 83.7913 99.6188 83.2394 99.7502L82.9503 99.816L83.7124 102.851C83.7519 103.022 83.8833 103.035 84.3826 102.93L84.422 103.101L82.6612 103.548L82.6349 103.403Z" fill="white"/>
<path d="M85.8146 102.523C86.2614 102.352 86.3534 102.26 86.2877 102.089L85.3153 99.3561C85.2496 99.1853 85.1313 99.1853 84.6714 99.3298L84.6057 99.159L86.2351 98.5808L86.3009 98.7516C85.8541 98.9225 85.7621 99.0145 85.8278 99.1853L86.8002 101.919C86.8659 102.089 86.9842 102.089 87.4441 101.945L87.5098 102.116L85.8804 102.694L85.8146 102.523Z" fill="white"/>
<path fill-rule="evenodd" clip-rule="evenodd" d="M88.2853 97.5819C87.3786 98.0155 86.9975 99.0536 87.51 100.144C88.0356 101.235 89.0475 101.59 89.9673 101.143C90.874 100.709 91.2551 99.6713 90.7426 98.5806C90.2301 97.4899 89.2052 97.1483 88.2853 97.5819ZM88.3504 97.7918C88.9811 97.4896 89.6645 97.7655 90.1901 98.8693C90.7157 99.9731 90.5317 100.656 89.901 100.959C89.2702 101.261 88.5869 100.985 88.0613 99.8811C87.5357 98.7773 87.7328 98.094 88.3504 97.7918Z" fill="white"/>
<path d="M91.2943 96.7804V96.7804L92.5164 98.6858C92.8055 99.1326 92.9237 99.1983 93.4362 98.9749L93.5282 99.1194L92.3193 99.9079L92.2273 99.7633C92.6084 99.4217 92.6215 99.264 92.3324 98.8172L91.0972 96.8987C90.9789 96.7147 90.7818 96.6622 90.3876 96.8987L90.2825 96.741L91.176 96.1628L94.54 97.4637V97.4637L93.4494 95.7686C93.1734 95.335 92.9894 95.2824 92.4901 95.5189L92.3981 95.3744L93.6202 94.5859L93.7122 94.7305C93.3311 95.0853 93.3574 95.2167 93.6333 95.6503L95.2365 98.1339L95.0525 98.2522L91.2943 96.7804Z" fill="white"/>
<path d="M25 68.0158C25 65.7162 26.6951 63.9685 28.8633 63.9685C29.6518 63.9685 30.3088 64.2445 30.7293 64.4941L31.0447 63.9948H31.3995V66.4784H31.0578C30.5716 65.1774 29.862 64.3759 28.7451 64.3759C27.431 64.3759 26.2352 65.6242 26.2352 67.9632C26.2352 70.184 27.6675 71.2747 28.9553 71.2747C30.2562 71.2747 30.9658 70.4862 31.4126 69.5138L31.7937 69.6978C31.3206 70.7622 30.3351 71.866 28.6662 71.866C26.5112 71.8923 25 70.3548 25 68.0158" fill="white"/>
<path fill-rule="evenodd" clip-rule="evenodd" d="M34.2508 68.8699H36.8263L37.3782 70.4862C37.6016 71.0907 37.4177 71.3141 36.419 71.3666V71.6952H39.7961V71.3666C38.942 71.2484 38.7186 70.9987 38.5083 70.4205L36.1956 64.0342H35.6831L33.3704 69.7898C32.9893 70.7753 32.7265 71.2221 31.9512 71.3798V71.7083H34.4479V71.3798C33.4492 71.2089 33.3966 71.0775 33.8171 70L34.2508 68.8699ZM35.6307 65.4271L36.6688 68.4626H34.4218L35.5913 65.4271H35.6307Z" fill="white"/>
<path d="M41.8463 65.3482V65.3482L41.8332 69.8948C41.8332 70.9461 41.9646 71.2089 43.0684 71.3797V71.7082H40.1643V71.3797C41.1893 71.2089 41.3732 70.9592 41.3732 69.8948V65.3088C41.3732 64.8883 41.0973 64.5466 40.1643 64.5335V64.1655H42.3062L46.5769 70.0262H46.5901V65.9658C46.5901 64.9277 46.3535 64.6517 45.2629 64.494V64.1655H48.1801V64.494C47.1551 64.678 47.05 64.9145 47.05 65.9658V71.8922H46.6032L41.8463 65.3482Z" fill="white"/>
<path fill-rule="evenodd" clip-rule="evenodd" d="M52.5558 63.9685C50.5585 63.9685 48.9553 65.5322 48.9553 67.9501C48.9553 70.3811 50.5059 71.8923 52.5558 71.8791C54.5532 71.8791 56.1564 70.3286 56.1564 67.8975C56.1564 65.4797 54.6058 63.9685 52.5558 63.9685ZM52.5165 64.3757C53.8962 64.3757 54.9212 65.4663 54.9212 67.9236C54.9212 70.3941 53.9882 71.4716 52.6085 71.4716C51.2287 71.4716 50.2037 70.3941 50.2037 67.9236C50.2037 65.4663 51.1236 64.3757 52.5165 64.3757Z" fill="white"/>
<path fill-rule="evenodd" clip-rule="evenodd" d="M58.469 70.8409C58.469 71.1957 58.2325 71.3008 57.2732 71.3403V71.6951H60.8212V71.3271C59.7962 71.2877 59.5597 71.2088 59.5597 70.8278V68.4362H60.2955C62.6346 68.4362 63.3967 67.2404 63.3967 66.2023C63.3967 65.0853 62.674 64.1523 60.3744 64.1523H57.2732V64.5203C58.2456 64.5597 58.469 64.6648 58.469 65.0196V70.8409ZM62.2273 66.2284C62.2273 67.2928 61.8725 68.0286 60.3745 68.0286H59.5598V64.5595H60.4139C61.8462 64.5595 62.2273 65.3085 62.2273 66.2284Z" fill="white"/>
<path d="M69.0736 65.7555C69.586 64.8751 69.5729 64.6254 68.5611 64.494V64.1655H71.1629V64.494C70.5059 64.6254 70.2299 64.7831 69.7174 65.6373L68.0223 68.4494V70.841C68.0223 71.1958 68.2457 71.3009 69.2181 71.3403V71.7082H65.7358V71.3403C66.6951 71.3009 66.9316 71.2089 66.9316 70.841V68.5676L64.9868 65.1905C64.7372 64.7569 64.5663 64.6123 63.8699 64.494V64.1655H67.1156V64.494C66.1038 64.5466 65.9855 64.8094 66.2352 65.2431L67.7726 67.9894L69.0736 65.7555Z" fill="white"/>
<path d="M73.9749 67.9501C73.9749 65.5848 75.7751 63.9685 77.8908 63.9685C78.5872 63.9685 79.3494 64.1656 79.7304 64.3364L80.0458 63.9685H80.4006V66.1761H80.059C79.599 64.9541 78.8369 64.3759 77.7856 64.3759C76.5241 64.3759 75.2232 65.5191 75.2232 67.9238C75.2232 70.3154 76.6293 71.4718 77.8776 71.4718C78.5741 71.4718 79.0865 71.3404 79.4151 71.0776V68.9488C79.4151 68.594 79.1917 68.4889 78.2193 68.4495V68.0815H81.2547V68.4495C80.5583 68.4889 80.4926 68.5677 80.4926 68.9488V71.301C79.8356 71.6558 78.7055 71.8923 77.9565 71.8923C75.8408 71.8923 73.9749 70.5519 73.9749 67.9501" fill="white"/>
<path fill-rule="evenodd" clip-rule="evenodd" d="M85.6176 71.3403C84.5926 71.3008 84.4349 71.222 84.4349 70.8409V68.1339H85.2496C86.4323 68.1339 86.9053 68.3968 86.9973 69.5269L87.063 70.4073C87.1419 71.4585 87.4047 71.787 89.021 71.787C89.0604 71.787 89.136 71.7837 89.2115 71.7805C89.2871 71.7772 89.3626 71.7739 89.4021 71.7739V71.406C88.6136 71.3534 88.3377 71.1957 88.2325 70.5255L88.0617 69.4349C87.9303 68.5939 87.7595 68.0551 86.3666 67.9237V67.8843C87.7726 67.5689 88.2851 66.9119 88.2851 65.992C88.2851 65.0328 87.6149 64.1523 85.3153 64.1523H82.1484V64.5203C83.1208 64.5597 83.3442 64.6648 83.3442 65.0196V70.8409C83.3442 71.1957 83.1077 71.3008 82.1484 71.3403V71.7082H85.6176V71.3403ZM87.1156 66.0313C87.1156 67.0957 86.7608 67.7265 85.3154 67.7265H84.4349V64.5727H85.2365C86.6163 64.5727 87.1156 65.0326 87.1156 66.0313Z" fill="white"/>
<path fill-rule="evenodd" clip-rule="evenodd" d="M93.6335 63.9685C91.6361 63.9685 90.033 65.5322 90.033 67.9501C90.033 70.3811 91.5704 71.8923 93.6335 71.8791C95.6309 71.8791 97.234 70.3286 97.234 67.8975C97.234 65.4797 95.6834 63.9685 93.6335 63.9685ZM93.5941 64.3757C94.9738 64.3757 95.9988 65.4663 95.9988 67.9236C95.9988 70.3941 95.0658 71.4716 93.686 71.4716C92.3063 71.4716 91.2813 70.3941 91.2813 67.9236C91.2813 65.4663 92.2012 64.3757 93.5941 64.3757Z" fill="white"/>
<path d="M102.976 65.4402C102.779 64.8488 102.569 64.5992 101.833 64.494V64.1655H104.948V64.494C104.001 64.5466 103.896 64.8094 104.015 65.2168L105.565 70.1971H105.605L106.997 65.9658C107.379 64.8357 107.26 64.6517 106.183 64.494V64.1655H108.955V64.494C108.18 64.6517 107.838 64.9934 107.523 65.9526L105.552 71.8922H105.04L103.397 66.7805L101.452 71.8922H100.94L98.9292 65.3088C98.7715 64.7963 98.5744 64.6649 97.7202 64.494V64.1655H100.874V64.494C99.9935 64.5466 99.9278 64.7831 100.046 65.2168L101.492 70.2102H101.531L103.147 66.0052L102.976 65.4402Z" fill="white"/>
<path d="M110.782 71.3403C111.807 71.3008 112.056 71.2088 112.056 70.8409V64.5728H111.478C110.374 64.5728 110.164 65.1642 109.717 66.5308L109.363 66.5045L109.428 64.1523H115.788L115.867 66.5045L115.512 66.5308C115.131 65.243 114.882 64.5728 113.752 64.5728H113.16V70.8541C113.16 71.2088 113.41 71.314 114.435 71.3534V71.7213H110.795V71.3403H110.782Z" fill="white"/>
<path d="M116.879 71.3403C117.838 71.3008 118.075 71.2088 118.075 70.8409V65.0196C118.075 64.6648 117.852 64.5597 116.879 64.5203V64.1523H120.269V64.5203C119.244 64.5597 119.166 64.6385 119.166 65.0196V67.5952H122.714V65.0196C122.714 64.6385 122.635 64.5597 121.61 64.5203V64.1523H125V64.5203C124.041 64.5597 123.804 64.6517 123.804 65.0196V70.8409C123.804 71.1957 124.028 71.3008 125 71.3403V71.7082H121.61V71.3403C122.635 71.3008 122.714 71.222 122.714 70.8409V67.9894H119.166V70.8409C119.166 71.222 119.244 71.3008 120.269 71.3403V71.7082H116.879V71.3403Z" fill="white"/>
<path d="M36.6294 58.8987L113.489 58.7883L113.489 59.1694L36.6299 59.2798L36.6294 58.8987Z" fill="white"/>
<path d="M36.2685 76.6452L36.269 76.2641L113.141 76.3629L113.141 76.7439L36.2685 76.6452Z" fill="white"/>
</svg>
