
<svg width="19" height="21" viewBox="0 0 19 21" fill="none" xmlns="http://www.w3.org/2000/svg">
<path d="M8.44278 20.263C9.17196 20.2616 9.87837 20.0089 10.443 19.5475C11.0077 19.0861 11.3961 18.4442 11.5428 17.73H5.34277C5.48948 18.4442 5.87788 19.0861 6.44254 19.5475C7.00719 20.0089 7.7136 20.2616 8.44278 20.263Z" fill="#333B41"/>
<path d="M14.3638 10.1309H14.3538C12.787 10.129 11.2848 9.50578 10.1769 8.39785C9.06894 7.28991 8.44568 5.78775 8.44383 4.22089C8.44528 3.35607 8.63823 2.50229 9.00883 1.72089C8.82283 1.70289 8.63483 1.69189 8.44383 1.69189C6.8764 1.69189 5.37317 2.31455 4.26483 3.42289C3.15649 4.53123 2.53383 6.03446 2.53383 7.60189V9.95589C2.5335 10.781 2.35281 11.5961 2.0044 12.3441C1.65598 13.092 1.14828 13.7548 0.516829 14.2859C0.303381 14.4683 0.146364 14.7079 0.0641831 14.9764C-0.0179974 15.2449 -0.0219361 15.5312 0.0528288 15.8019C0.153745 16.123 0.356483 16.4024 0.63037 16.598C0.904257 16.7936 1.23439 16.8946 1.57083 16.8859H15.3118C15.6639 16.8953 16.0086 16.7844 16.2891 16.5716C16.5696 16.3587 16.7692 16.0565 16.8548 15.7149C16.9109 15.4513 16.894 15.1775 16.8059 14.9228C16.7178 14.6682 16.5618 14.4424 16.3548 14.2699C15.7508 13.7588 15.2616 13.1259 14.9192 12.4126C14.5768 11.6994 14.3889 10.9218 14.3678 10.1309H14.3638Z" fill="#333B41"/>
<path d="M18.5748 4.222C18.5746 5.05675 18.3269 5.8727 17.863 6.56669C17.3992 7.26067 16.7399 7.80153 15.9687 8.12089C15.1974 8.44024 14.3488 8.52375 13.5301 8.36085C12.7114 8.19795 11.9594 7.79595 11.3691 7.2057C10.7789 6.61544 10.3769 5.86342 10.214 5.04472C10.0511 4.22602 10.1346 3.3774 10.4539 2.60616C10.7733 1.83491 11.3141 1.17567 12.0081 0.711784C12.7021 0.247898 13.5181 0.000197903 14.3528 1.18494e-07C14.9073 -0.000131259 15.4564 0.108984 15.9687 0.321113C16.481 0.533242 16.9464 0.844227 17.3385 1.2363C17.7306 1.62838 18.0416 2.09386 18.2537 2.60616C18.4658 3.11845 18.5749 3.66752 18.5748 4.222Z" fill="#F9C02B"/>
</svg>
