
<svg width="150" height="150" viewBox="0 0 150 150" fill="none" xmlns="http://www.w3.org/2000/svg">
<path d="M25 67.307H29.3672L34.5716 75.8461H34.5996V67.307H37.5436V79.1669H33.1345L27.972 70.6277H27.944V79.1669H25V67.307Z" fill="white"/>
<path d="M43.2921 73.2369C43.2921 71.1579 44.227 69.4278 47.0315 69.4278C49.836 69.4278 50.7708 71.1579 50.7708 73.2369C50.7708 75.3159 49.836 77.046 47.0315 77.046C44.227 77.046 43.2921 75.3298 43.2921 73.2369ZM39.4969 73.2369C39.4969 76.8228 41.7294 79.4738 47.0315 79.4738C52.3336 79.4738 54.566 76.8088 54.566 73.2369C54.566 69.665 52.3336 67 47.0315 67C41.7294 67 39.4969 69.665 39.4969 73.2369Z" fill="white"/>
<path d="M64.5144 79.1669H60.2867L55.1799 67.307H58.9891L62.5052 76.9623L66.1748 67.307H69.5932L64.5144 79.1669Z" fill="white"/>
<path d="M91.6806 79.1669H87.4529L82.3462 67.307H86.1693L89.6854 76.9623L93.355 67.307H96.7734L91.6806 79.1669Z" fill="white"/>
<path d="M78.1324 74.6182H73.4722L75.8441 69.6092L78.1324 74.6182ZM67.8352 79.1669H71.2955L72.4117 76.8228H79.151L80.2393 79.1669H84.0065L77.9929 67.307H73.9745L67.8352 79.1669Z" fill="white"/>
<path d="M105.243 74.6182H100.694L103.01 69.6092L105.243 74.6182ZM95.1968 79.1669H98.5734L99.6617 76.8228H106.233L107.294 79.1669H110.977L105.117 67.307H101.196L95.1968 79.1669Z" fill="white"/>
<path d="M113.322 72.9997L108.619 67.3209H112.819L115.582 71.1021L118.289 67.307H122.084L117.382 72.9858L125 82.4877H120.689L115.163 75.0368L112.191 79.1808H108.285L113.322 72.9997Z" fill="white"/>
</svg>
