
<svg width="13" height="12" viewBox="0 0 13 12" fill="none" xmlns="http://www.w3.org/2000/svg">
<path d="M2.77591 11.883C2.67697 11.8828 2.57936 11.8603 2.49028 11.8172C2.40121 11.7742 2.32296 11.7116 2.26131 11.6343C2.19967 11.5569 2.15622 11.4666 2.13416 11.3702C2.11211 11.2737 2.11203 11.1735 2.13391 11.077L2.93391 7.56305L0.225912 5.19105C0.129049 5.10597 0.0592253 4.99438 0.025061 4.87007C-0.00910326 4.74576 -0.00611166 4.61416 0.0336664 4.49153C0.0734445 4.3689 0.148267 4.2606 0.248896 4.18001C0.349524 4.09942 0.471552 4.05007 0.599912 4.03805L4.17891 3.70805L5.59391 0.401046C5.64463 0.282336 5.7291 0.181138 5.83684 0.110015C5.94457 0.0388916 6.07082 0.000976562 6.19991 0.000976562C6.329 0.000976562 6.45525 0.0388916 6.56299 0.110015C6.67072 0.181138 6.75519 0.282336 6.80591 0.401046L8.22191 3.70805L11.7999 4.03805C11.9284 4.0499 12.0505 4.09913 12.1513 4.17965C12.252 4.26017 12.327 4.36846 12.3669 4.49112C12.4068 4.61378 12.4099 4.74545 12.3758 4.86984C12.3416 4.99424 12.2718 5.1059 12.1749 5.19105L9.46991 7.56305L10.2699 11.077C10.2986 11.2029 10.2897 11.3345 10.2443 11.4554C10.1989 11.5762 10.119 11.6811 10.0145 11.757C9.91001 11.8328 9.78553 11.8763 9.65653 11.882C9.52753 11.8877 9.3997 11.8554 9.28891 11.789L6.19991 9.94405L3.11391 11.79C3.01179 11.8513 2.895 11.8838 2.77591 11.884V11.883ZM6.19991 9.14905C6.31889 9.14906 6.43567 9.18119 6.53791 9.24205L9.45091 10.984L8.69991 7.66905C8.67362 7.55313 8.67916 7.43227 8.71595 7.31925C8.75274 7.20623 8.81942 7.10526 8.90891 7.02705L11.4629 4.78705L8.08291 4.48005C7.96385 4.46944 7.84993 4.42659 7.75338 4.35612C7.65684 4.28565 7.58131 4.19021 7.53491 4.08005L6.19991 0.955046L4.86491 4.08005C4.81886 4.19005 4.74369 4.28542 4.64748 4.3559C4.55128 4.42638 4.43768 4.4693 4.31891 4.48005L0.938912 4.78705L3.49291 7.02705C3.58197 7.10533 3.64822 7.20622 3.68465 7.31905C3.72109 7.43188 3.72636 7.55246 3.69991 7.66805L2.94791 10.984L5.86191 9.24305C5.96404 9.18179 6.08083 9.14931 6.19991 9.14905Z" fill="#333B41"/>
</svg>
