
            <svg width="13" height="12" viewBox="0 0 13 12" fill="none" xmlns="http://www.w3.org/2000/svg">
                <path
                    d="M12.6818 4.33288C12.6615 4.27074 12.6243 4.21552 12.5743 4.17346C12.5242 4.13139 12.4635 4.10417 12.3988 4.09488L8.69076 3.55588L7.03276 0.195879C7.00389 0.137239 6.95917 0.0878575 6.90368 0.0533247C6.84818 0.0187919 6.78413 0.000488281 6.71876 0.000488281C6.6534 0.000488281 6.58934 0.0187919 6.53385 0.0533247C6.47835 0.0878575 6.43364 0.137239 6.40476 0.195879L4.74676 3.55588L1.03776 4.09388C0.972512 4.10283 0.911111 4.13002 0.860618 4.17231C0.810125 4.2146 0.77259 4.27028 0.752327 4.33295C0.732064 4.39562 0.729895 4.46274 0.74607 4.52658C0.762245 4.59043 0.796107 4.64842 0.843764 4.69388L3.52676 7.30388L2.89376 11.0039C2.88269 11.0683 2.88987 11.1345 2.91448 11.195C2.93909 11.2555 2.98015 11.308 3.03301 11.3464C3.08587 11.3848 3.14843 11.4076 3.2136 11.4123C3.27877 11.417 3.34395 11.4033 3.40176 11.3729L6.71876 9.62888L10.0378 11.3699C10.0956 11.4003 10.1608 11.414 10.2259 11.4093C10.2911 11.4046 10.3537 11.3818 10.4065 11.3434C10.4594 11.305 10.5004 11.2525 10.5251 11.192C10.5497 11.1315 10.5568 11.0653 10.5458 11.0009L9.90976 7.30388L12.5928 4.68888C12.6391 4.64359 12.6719 4.58633 12.6877 4.52348C12.7034 4.46062 12.7013 4.39464 12.6818 4.33288Z"
                    fill="#F8C02D" />
            </svg>
        