
<svg width="9" height="10" viewBox="0 0 9 10" fill="none" xmlns="http://www.w3.org/2000/svg">
<g opacity="0.51">
<g opacity="0.51">
<path opacity="0.51" d="M4.36569 4.46897C3.22469 4.46897 2.16569 3.44697 0.422687 1.59197C0.368632 1.53464 0.326588 1.46707 0.29903 1.39324C0.271472 1.31942 0.258964 1.24082 0.262225 1.16209C0.265486 1.08336 0.284458 1.00608 0.318027 0.934793C0.351595 0.863502 0.399079 0.799642 0.45769 0.746973C0.577056 0.639559 0.733653 0.582999 0.894107 0.58935C1.05456 0.595701 1.20618 0.664458 1.31668 0.780969C2.72468 2.28097 3.7567 3.27297 4.36569 3.27297C4.9747 3.27297 6.00669 2.28197 7.41469 0.780969C7.52519 0.664458 7.67683 0.595701 7.83728 0.58935C7.99774 0.582999 8.15432 0.639559 8.27368 0.746973C8.33242 0.799567 8.38002 0.863389 8.41367 0.934687C8.44732 1.00598 8.46633 1.0833 8.46959 1.16207C8.47285 1.24084 8.4603 1.31947 8.43267 1.3933C8.40503 1.46714 8.36287 1.5347 8.30869 1.59197C6.56769 3.44697 5.50669 4.46897 4.36569 4.46897Z" fill="white"/>
</g>
<g opacity="0.51">
<path opacity="0.51" d="M7.75971 9.577C7.59571 9.577 7.53371 9.51201 7.41371 9.38501C6.00571 7.88501 4.97372 6.89301 4.36472 6.89301C3.75572 6.89301 2.72371 7.88401 1.31571 9.38501C1.2052 9.50152 1.05358 9.57028 0.893131 9.57663C0.732676 9.58298 0.57608 9.52642 0.456714 9.41901C0.398103 9.36634 0.350619 9.30246 0.31705 9.23117C0.283482 9.15988 0.26451 9.08261 0.261249 9.00388C0.257988 8.92514 0.270495 8.84656 0.298053 8.77274C0.325611 8.69891 0.367656 8.63134 0.42171 8.57401C2.16271 6.71901 3.22172 5.698 4.36472 5.698C5.50772 5.698 6.56471 6.72001 8.30771 8.57401C8.39025 8.66767 8.44195 8.78447 8.4558 8.90854C8.46965 9.03261 8.44498 9.15793 8.38512 9.26749C8.32526 9.37704 8.23312 9.46553 8.12123 9.5209C8.00934 9.57628 7.88312 9.59585 7.75971 9.577Z" fill="white"/>
</g>
</g>
</svg>
