
<svg width="156" height="25" viewBox="0 0 156 25" fill="none" xmlns="http://www.w3.org/2000/svg">
<path d="M43.0835 11.528L41.7944 12.8951V16.442H39.8179V5.06702H41.7944V10.403L42.8882 9.05139L46.2163 5.06702H48.6069L44.3804 10.1061L48.8491 16.442H46.5054L43.0835 11.528ZM56.5601 11.3639H51.8882V14.8639H57.3491V16.442H49.9116V5.06702H57.2944V6.66077H51.8882V9.80139H56.5601V11.3639ZM67.9819 16.442H66.0054L60.9351 8.3717V16.442H58.9585V5.06702H60.9351L66.021 13.1686V5.06702H67.9819V16.442ZM79.3413 16.442H77.3647L72.2944 8.3717V16.442H70.3179V5.06702H72.2944L77.3804 13.1686V5.06702H79.3413V16.442ZM87.6226 13.5123C87.6226 13.0123 87.4455 12.6269 87.0913 12.3561C86.7424 12.0852 86.1095 11.8118 85.1929 11.5358C84.2762 11.2597 83.547 10.9524 83.0054 10.6139C81.9689 9.96285 81.4507 9.11389 81.4507 8.06702C81.4507 7.15035 81.8231 6.39514 82.5679 5.80139C83.3179 5.20764 84.2892 4.91077 85.4819 4.91077C86.2736 4.91077 86.9793 5.0566 87.5991 5.34827C88.2189 5.63993 88.7059 6.0566 89.0601 6.59827C89.4142 7.13472 89.5913 7.73108 89.5913 8.38733H87.6226C87.6226 7.79358 87.4351 7.33004 87.0601 6.9967C86.6903 6.65816 86.159 6.48889 85.4663 6.48889C84.8205 6.48889 84.3179 6.62691 83.9585 6.90295C83.6043 7.179 83.4272 7.56441 83.4272 8.0592C83.4272 8.47587 83.62 8.82483 84.0054 9.10608C84.3908 9.38212 85.0262 9.65295 85.9116 9.91858C86.797 10.179 87.508 10.4785 88.0444 10.817C88.5809 11.1503 88.9741 11.5358 89.2241 11.9733C89.4741 12.4056 89.5991 12.9134 89.5991 13.4967C89.5991 14.4446 89.2345 15.1998 88.5054 15.7623C87.7814 16.3196 86.797 16.5983 85.5522 16.5983C84.7293 16.5983 83.9715 16.4472 83.2788 16.1451C82.5913 15.8378 82.0549 15.416 81.6694 14.8795C81.2892 14.3431 81.0991 13.7181 81.0991 13.0045H83.0757C83.0757 13.6503 83.2892 14.1503 83.7163 14.5045C84.1434 14.8587 84.7554 15.0358 85.5522 15.0358C86.2397 15.0358 86.7554 14.8977 87.0991 14.6217C87.4481 14.3405 87.6226 13.9707 87.6226 13.5123ZM99.5522 6.66077H96.0054V16.442H94.0444V6.66077H90.5288V5.06702H99.5522V6.66077ZM103.138 16.442H101.169V5.06702H103.138V16.442ZM114.591 16.442H112.615L107.544 8.3717V16.442H105.568V5.06702H107.544L112.63 13.1686V5.06702H114.591V16.442ZM129.943 16.442H127.974V11.3873H122.888V16.442H120.912V5.06702H122.888V9.80139H127.974V5.06702H129.943V16.442ZM134.373 16.442H132.404V5.06702H134.373V16.442ZM140.81 13.9655L143.701 5.06702H145.873L141.779 16.442H139.865L135.787 5.06702H137.951L140.81 13.9655ZM153.81 11.3639H149.138V14.8639H154.599V16.442H147.162V5.06702H154.544V6.66077H149.138V9.80139H153.81V11.3639Z" fill="#F8C02D"/>
</svg>
