
<svg width="28" height="31" viewBox="0 0 28 31" fill="none" xmlns="http://www.w3.org/2000/svg">
<path d="M27.333 21.0718C27.333 21.7699 27.1504 22.4558 26.8032 23.0613C26.456 23.6669 25.9564 24.1711 25.354 24.5238L15.687 30.1828C15.0741 30.5415 14.3767 30.7306 13.6665 30.7306C12.9563 30.7306 12.2589 30.5415 11.646 30.1828L1.97901 24.5238C1.37661 24.1711 0.877001 23.6669 0.529823 23.0613C0.182646 22.4558 -1.14441e-05 21.7699 7.62939e-06 21.0718V9.65782C-1.14441e-05 8.95977 0.182646 8.27387 0.529823 7.66828C0.877001 7.06269 1.37661 6.5585 1.97901 6.20582L11.646 0.547815C12.2589 0.189081 12.9563 0 13.6665 0C14.3767 0 15.0741 0.189081 15.687 0.547815L25.354 6.20582C25.9564 6.5585 26.456 7.06269 26.8032 7.66828C27.1504 8.27387 27.333 8.95977 27.333 9.65782L27.333 21.0718Z" fill="#F1BB2C"/>
</svg>
