
<svg width="77" height="74" viewBox="0 0 77 74" fill="none" xmlns="http://www.w3.org/2000/svg" style="transform: rotate(180deg);">
<path opacity="0.52" d="M60.7693 -20.9794C61.9454 -21.6587 63.2796 -22.0163 64.6378 -22.0162C65.996 -22.0161 67.3302 -21.6582 68.5062 -20.9787L95.564 -5.34514C96.7386 -4.66639 97.7141 -3.69061 98.3924 -2.51574C99.0707 -1.34087 99.428 -0.00825001 99.4285 1.34837L99.4373 32.5976C99.4377 33.9557 99.0805 35.2901 98.4015 36.4663C97.7225 37.6426 96.7457 38.6193 95.5694 39.2982L39.1573 72.4775C37.9812 73.1567 36.6469 73.5143 35.2888 73.5142C33.9306 73.514 32.5964 73.1563 31.4204 72.4768L4.36515 56.8418C3.19053 56.163 2.21512 55.1872 1.53681 54.0124C0.8585 52.8375 0.501156 51.5049 0.50065 50.1483L0.491002 18.8995C0.490596 17.5414 0.847854 16.2071 1.52684 15.0308C2.20582 13.8545 3.18258 12.8778 4.35887 12.1989L60.7693 -20.9794Z" fill="url(#paint0_linear_10_1696)"/>
<defs>
<linearGradient id="paint0_linear_10_1696" x1="-3.2677" y1="60.0451" x2="60.805" y2="-3.77783" gradientUnits="userSpaceOnUse">
<stop stop-color="#181A1D"/>
<stop offset="0.744792" stop-color="#333B41"/>
</linearGradient>
</defs>
</svg>