<svg xmlns="http://www.w3.org/2000/svg" width="109" height="130" viewBox="0 0 109 130" fill="none">
<path opacity="0.52" d="M78.1616 -16.6678C80.1379 -17.8092 82.38 -18.4102 84.6622 -18.4103C86.9445 -18.4105 89.1866 -17.8098 91.163 -16.6686L136.646 9.61051C138.621 10.7514 140.261 12.3918 141.401 14.3668C142.541 16.3419 143.142 18.5822 143.143 20.8628L143.16 73.3919C143.16 75.6742 142.559 77.9162 141.417 79.8926C140.276 81.8691 138.635 83.5102 136.658 84.6511L65.9026 130.847C63.9263 131.988 61.6846 132.588 59.4027 132.588C57.1208 132.588 54.8791 131.988 52.9029 130.847L7.41796 104.569C5.44171 103.428 3.80062 101.787 2.65963 99.8103C1.51865 97.834 0.917964 95.5923 0.917964 93.3103L0.902862 40.7801C0.902862 38.4982 1.50351 36.2565 2.64445 34.2803C3.78538 32.304 5.4264 30.663 7.40258 29.522L78.1616 -16.6678Z" fill="url(#paint0_linear_10_1852)"/>
<defs>
<linearGradient id="paint0_linear_10_1852" x1="-4.84765" y1="107.655" x2="92.8795" y2="17.9413" gradientUnits="userSpaceOnUse">
<stop stop-color="#746D07"/>
<stop offset="1" stop-color="#573E0B"/>
</linearGradient>
</defs>
</svg>